<?xml version="1.0" encoding="utf-8"?>
<!-- Generator: Adobe Illustrator 25.4.2, SVG Export Plug-In . SVG Version: 6.00 Build 0)  -->
<svg version="1.1" id="Warstwa_1" xmlns="http://www.w3.org/2000/svg" xmlns:xlink="http://www.w3.org/1999/xlink" x="0px" y="0px"
	 viewBox="0 0 252 40.1" style="enable-background:new 0 0 252 40.1;" xml:space="preserve">
<style type="text/css">
	.st0{enable-background:new    ;}
	.st1{fill:#FFFFFF;}
	.st2{fill-rule:evenodd;clip-rule:evenodd;fill:#FFFFFF;}
</style>
<g id="Warstwa_2_00000033343909048361066760000011730876555679286711_">
	<g id="Warstwa_1-2">
		<g id="ADVENTURE">
			<g class="st0">
				<path class="st1" d="M98.3,21v5.3h-1.7V31h-5.9V18.3c0-2.5,0.7-4.4,2-5.7c1.3-1.4,3.2-2,5.7-2c2.3,0,4.1,0.6,5.2,1.9
					c1.1,1.2,1.7,3.1,1.7,5.7V31h-5.9V18.5c0-0.8-0.1-1.3-0.3-1.6s-0.5-0.5-1-0.5c-0.9,0-1.4,0.7-1.4,2.1V21H98.3z"/>
				<path class="st1" d="M115.9,16.7V31h-5.9V11h7.7c3.4,0,6.1,0.8,8,2.3c2.3,1.8,3.4,4.4,3.4,7.5c0,3-1,5.5-2.9,7.4
					s-4.5,2.9-7.5,2.9c-0.4,0-1,0-1.8-0.1v-5.9h1c3.5,0,5.2-1.5,5.2-4.4c0-2.7-1.7-4.1-5.1-4.1H115.9z"/>
				<path class="st1" d="M147.4,11l-8.7,21.1L130.1,11h6.9l1.8,6.2l2-6.2H147.4z"/>
				<path class="st1" d="M160.6,18.8v4.5h-3.9c-0.5,0-0.9,0.1-1.1,0.2c-0.2,0.2-0.3,0.4-0.3,0.8c0,0.4,0.1,0.7,0.3,0.8
					c0.2,0.1,0.7,0.2,1.4,0.2h4V31h-4.7c-2.2,0-3.9-0.5-5-1.6s-1.7-2.6-1.7-4.5V17c0-1.9,0.5-3.4,1.6-4.5c1.1-1.1,2.6-1.6,4.6-1.6
					h5.2v5.7h-3.8c-1,0-1.5,0.3-1.5,1c0,0.4,0.1,0.7,0.4,0.8s0.7,0.2,1.3,0.2H160.6z"/>
				<path class="st1" d="M165.1,31V18c0-2.3,0.7-4.1,2-5.5s3.2-2.1,5.4-2.1c2.3,0,4,0.7,5.2,2s1.8,3.2,1.8,5.7V31h-5.9V18.2
					c0-1.2-0.4-1.8-1.3-1.8c-0.8,0-1.3,0.6-1.3,1.8V31H165.1z"/>
				<path class="st1" d="M193.1,16.7V31h-5.9V16.7h-4.6V11h15v5.7H193.1z"/>
				<path class="st1" d="M215,11v13c0,2.3-0.7,4.1-2,5.5s-3.2,2.1-5.4,2.1c-2.3,0-4-0.7-5.2-2s-1.8-3.2-1.8-5.7V11h5.9v12.8
					c0,1.2,0.4,1.8,1.3,1.8c0.8,0,1.3-0.6,1.3-1.8V11H215z"/>
				<path class="st1" d="M225.8,16.4V31h-5.9V11h7.6c2.3,0,4.1,0.6,5.4,1.7c1.4,1.3,2.1,2.9,2.1,4.9c0,2-0.9,3.7-2.7,5.1l3.4,8.2
					h-6.2l-2.9-6.4v-5.1h0.5c1.3,0,1.9-0.5,1.9-1.6c0-0.9-0.7-1.4-2.2-1.4H225.8z"/>
				<path class="st1" d="M249.6,18.8v4.5h-3.9c-0.5,0-0.9,0.1-1.1,0.2s-0.3,0.4-0.3,0.8c0,0.4,0.1,0.7,0.3,0.8
					c0.2,0.1,0.7,0.2,1.4,0.2h4V31h-4.7c-2.2,0-3.9-0.5-5-1.6s-1.7-2.6-1.7-4.5V17c0-1.9,0.5-3.4,1.6-4.5s2.6-1.6,4.6-1.6h5.2v5.7
					h-3.8c-1,0-1.5,0.3-1.5,1c0,0.4,0.1,0.7,0.4,0.8s0.7,0.2,1.3,0.2H249.6z"/>
			</g>
		</g>
		<path id="Path_3" class="st2" d="M2.9,23.1c1.6-1.4,5.5-4.2,7.4-6s1.6-2.3,2.6-3.3s1.1,0.1,2.1-0.6s2.5-2.7,3.5-3.4S20,9.6,21.4,9
			s2.9-3.2,5.3-3.1c2.1,0.1,3.3,1.5,4.5,2.7l0,0c2.1-1.8,4.4-4.7,5.9-4.5c3.4,0.6,4.3-3.9,8-4.1c2.4-0.1,3.9,2.4,5.3,3.1
			s1.7,0.2,2.8,0.9s2.6,2.7,3.5,3.4s1-0.3,2.1,0.6s0.7,1.5,2.6,3.3s5.8,4.6,7.4,6s4,2.5,2.4,2.1c-5.5-1.2-2,1.6-4,0.7
			c-2.8-1.3-4.8-3.6-7.6-4.9c-1-0.5-2.3-0.5-3.3,0c-0.6-0.6-1.3-1.3-1.9-1.9c-1.6-1.5-3.5-3.2-5.8-3.5c-2.2-0.3-4.4,0.4-6.1,2
			c-0.6,0.5-1.1,1-1.6,1.5c-0.2,0.2-0.5,0.5-0.8,0.7c-0.4,0.2-0.8,0.3-1.2,0.3c-1,0.1-1.9,0.5-2.7,1c-1,0.7-1.9,1.5-2.7,2.5
			c-0.4,0.5-1.1,1.2-1.6,1.6c-1.2-0.1-2.3,0.4-3.2,1.2c-0.9,0.9-1.8,1.9-2.6,3c-0.8,1.1-1.7,2.1-2.7,3c-2.4,2.1-5.3,3.5-8.4,4.1
			c-6.6,1.4,1.2-8.4-1.5-8.6c-1.9-0.2-4.2,3.4-7,4c-2.2,0.5,2.3-2,0.6-2.5s-5.2,1.4-6.8,1.7S1.3,24.4,2.9,23.1z M16.1,36.2
			c2.1-1.7,7-5.4,9.5-7.6s3.8-4.8,5.1-5.9c1.3-1.2,1.4,0.1,2.7-0.8s3.1-3.4,4.5-4.3s1.8-0.3,3.5-1.1c1.7-0.8,3.7-4.4,6.7-3.9
			s6.5,5.5,8.4,6.5s0.1-2.1,1.9-1.3s4.9,3.3,7.5,5.7s13.8,8.5,8.6,8.4s-13.7-6.4-17.5-8.6s-3.4-4-5.3-4.3s1.9,2.5,2.5,3.9
			s1.3,3.2,1,4.3s-1.5-0.1-2.2,0.7s0.2,4.7-1.8,3.8s-2.1-8.7-5.2-7.2s-0.4,9.2-3.3,11.2c-3.8,2.7,1.7-18.5-0.7-15.9
			s-3.3,10.2-5.2,13.5s-4.5,8.9-6.2,5.5s4.8-10.2,2.2-13.5s-3.6,4.9-6,8.6s-6.8,6.2-9.6,6.2s5.2-4.2,3-4.8s-5.3,3.2-7.2,3.6
			S14.1,37.9,16.1,36.2z"/>
	</g>
</g>
</svg>
