<svg id="Warstwa_1" data-name="Warstwa 1" xmlns="http://www.w3.org/2000/svg" viewBox="0 0 289.3 289.28"><defs><style>.cls-1{font-size:42px;fill:#fff;font-family:MyriadPro-Regular, Myriad Pro;}</style></defs><text class="cls-1" transform="translate(147.11 34.73) rotate(6.39)">L</text><text class="cls-1" transform="translate(165.08 36.43) rotate(16.68)">o</text><text class="cls-1" transform="translate(186.05 43.01) rotate(25.79)">r</text><text class="cls-1" transform="translate(197.33 48.06) rotate(34.15)">e</text><text class="cls-1" transform="matrix(0.67, 0.74, -0.74, 0.67, 214.11, 58.21)">m</text><text class="cls-1" transform="translate(235.89 83.92) rotate(58.63)"> </text><text class="cls-1" transform="translate(240.27 91.04) rotate(63.25)">i</text><text class="cls-1" transform="translate(244.79 98.71) rotate(71.59)">p</text><text class="cls-1" transform="translate(251.75 120.29) rotate(81.61)">s</text><text class="cls-1" transform="translate(254.38 135.6) rotate(91.29)">u</text><text class="cls-1" transform="translate(254.83 157.29) rotate(105.6)">m</text><text class="cls-1" transform="translate(244.71 189.4) rotate(116.47)"> </text><text class="cls-1" transform="translate(241.67 196.82) rotate(124.49)">d</text><text class="cls-1" transform="matrix(-0.72, 0.7, -0.7, -0.72, 229.08, 215.31)">o</text><text class="cls-1" transform="translate(212.95 230.38) rotate(144)">l</text><text class="cls-1" transform="translate(206.01 236.08) rotate(152.1)">o</text><text class="cls-1" transform="translate(186.47 246.11) rotate(161.19)">r</text><text class="cls-1" transform="translate(174.08 250.24) rotate(166.8)"> </text><text class="cls-1" transform="translate(166.18 252.35) rotate(173.1)">s</text><text class="cls-1" transform="translate(150.51 254.06) rotate(179.07)">i</text><text class="cls-1" transform="translate(141.28 254.31) rotate(-174.68)">t</text><text class="cls-1" transform="matrix(-0.98, -0.19, 0.19, -0.98, 128.14, 253)"> </text><text class="cls-1" transform="translate(120.14 251.88) rotate(-161.86)">a</text><text class="cls-1" transform="translate(101.93 247.01) rotate(-148.21)">m</text><text class="cls-1" transform="matrix(-0.7, -0.71, 0.71, -0.7, 73.88, 228.87)">e</text><text class="cls-1" transform="translate(59.99 214.45) rotate(-125.92)">t</text><text class="cls-1" transform="matrix(-0.51, -0.86, 0.86, -0.51, 52.38, 203.79)">,</text><text class="cls-1" transform="translate(48.21 196.75) rotate(-116.1)"> </text><text class="cls-1" transform="matrix(-0.33, -0.94, 0.94, -0.33, 44.34, 189.64)">c</text><text class="cls-1" transform="matrix(-0.16, -0.99, 0.99, -0.16, 38.3, 173.3)">o</text><text class="cls-1" transform="translate(34.77 151.84) rotate(-87.71)">n</text><text class="cls-1" transform="translate(35.84 129.71) rotate(-77.9)">s</text><text class="cls-1" transform="matrix(0.37, -0.93, 0.93, 0.37, 38.84, 114.44)">e</text><text class="cls-1" transform="translate(46.09 95.94) rotate(-58.74)">c</text><text class="cls-1" transform="matrix(0.64, -0.77, 0.77, 0.64, 55.75, 80.32)">t</text><text class="cls-1" transform="translate(63.54 70.33) rotate(-42.03)">e</text><text class="cls-1" transform="matrix(0.83, -0.55, 0.55, 0.83, 78.55, 57.06)">t</text><text class="cls-1" transform="translate(89.02 49.6) rotate(-24.34)">u</text><text class="cls-1" transform="translate(108.94 40.56) rotate(-13.4)">e</text><text class="cls-1" transform="translate(128.45 36.12) rotate(-4.84)">r</text><text class="cls-1" transform="translate(141.41 35.08) rotate(0.93)"> </text></svg>